<svg id="visual" viewBox="0 0 1920 150" preserveAspectRatio="none" width="1920" height="150" xmlns="http://www.w3.org/2000/svg" xmlns:xlink="http://www.w3.org/1999/xlink" version="1.1">
    <path d="M0 83L24.7 76.8C49.3 70.7 98.7 58.3 147.8 54.5C197 50.7 246 55.3 295.2 59.2C344.3 63 393.7 66 443 64.7C492.3 63.3 541.7 57.7 590.8 51.8C640 46 689 40 738.2 37.7C787.3 35.3 836.7 36.7 886 44.8C935.3 53 984.7 68 1034 67.3C1083.3 66.7 1132.7 50.3 1181.8 49C1231 47.7 1280 61.3 1329.2 63.8C1378.3 66.3 1427.7 57.7 1477 56.3C1526.3 55 1575.7 61 1624.8 59.8C1674 58.7 1723 50.3 1772.2 50.8C1821.3 51.3 1870.7 60.7 1895.3 65.3L1920 70L1920 151L1895.3 151C1870.7 151 1821.3 151 1772.2 151C1723 151 1674 151 1624.8 151C1575.7 151 1526.3 151 1477 151C1427.7 151 1378.3 151 1329.2 151C1280 151 1231 151 1181.8 151C1132.7 151 1083.3 151 1034 151C984.7 151 935.3 151 886 151C836.7 151 787.3 151 738.2 151C689 151 640 151 590.8 151C541.7 151 492.3 151 443 151C393.7 151 344.3 151 295.2 151C246 151 197 151 147.8 151C98.7 151 49.3 151 24.7 151L0 151Z" fill="#226409"></path>
    <path d="M0 71L24.7 72.7C49.3 74.3 98.7 77.7 147.8 77.7C197 77.7 246 74.3 295.2 75.8C344.3 77.3 393.7 83.7 443 81.8C492.3 80 541.7 70 590.8 65.3C640 60.7 689 61.3 738.2 67.3C787.3 73.3 836.7 84.7 886 87.2C935.3 89.7 984.7 83.3 1034 78.5C1083.3 73.7 1132.7 70.3 1181.8 68.8C1231 67.3 1280 67.7 1329.2 67.3C1378.3 67 1427.7 66 1477 68.3C1526.3 70.7 1575.7 76.3 1624.8 79.7C1674 83 1723 84 1772.2 80.7C1821.3 77.3 1870.7 69.7 1895.3 65.8L1920 62L1920 151L1895.3 151C1870.7 151 1821.3 151 1772.2 151C1723 151 1674 151 1624.8 151C1575.7 151 1526.3 151 1477 151C1427.7 151 1378.3 151 1329.2 151C1280 151 1231 151 1181.8 151C1132.7 151 1083.3 151 1034 151C984.7 151 935.3 151 886 151C836.7 151 787.3 151 738.2 151C689 151 640 151 590.8 151C541.7 151 492.3 151 443 151C393.7 151 344.3 151 295.2 151C246 151 197 151 147.8 151C98.7 151 49.3 151 24.7 151L0 151Z" fill="#1d6726"></path>
    <path d="M0 91L24.7 93.3C49.3 95.7 98.7 100.3 147.8 103.8C197 107.3 246 109.7 295.2 106.7C344.3 103.7 393.7 95.3 443 94.3C492.3 93.3 541.7 99.7 590.8 99C640 98.3 689 90.7 738.2 89.7C787.3 88.7 836.7 94.3 886 98.3C935.3 102.3 984.7 104.7 1034 104.3C1083.3 104 1132.7 101 1181.8 97.3C1231 93.7 1280 89.3 1329.2 88.7C1378.3 88 1427.7 91 1477 94.5C1526.3 98 1575.7 102 1624.8 104.7C1674 107.3 1723 108.7 1772.2 106.7C1821.3 104.7 1870.7 99.3 1895.3 96.7L1920 94L1920 151L1895.3 151C1870.7 151 1821.3 151 1772.2 151C1723 151 1674 151 1624.8 151C1575.7 151 1526.3 151 1477 151C1427.7 151 1378.3 151 1329.2 151C1280 151 1231 151 1181.8 151C1132.7 151 1083.3 151 1034 151C984.7 151 935.3 151 886 151C836.7 151 787.3 151 738.2 151C689 151 640 151 590.8 151C541.7 151 492.3 151 443 151C393.7 151 344.3 151 295.2 151C246 151 197 151 147.8 151C98.7 151 49.3 151 24.7 151L0 151Z" fill="#1d6a3b"></path>
    <path d="M0 112L24.7 111.8C49.3 111.7 98.7 111.3 147.8 113C197 114.7 246 118.3 295.2 117.3C344.3 116.3 393.7 110.7 443 110C492.3 109.3 541.7 113.7 590.8 113.7C640 113.7 689 109.3 738.2 107.2C787.3 105 836.7 105 886 108C935.3 111 984.7 117 1034 119.5C1083.3 122 1132.7 121 1181.8 120.3C1231 119.7 1280 119.3 1329.2 118C1378.3 116.7 1427.7 114.3 1477 114.2C1526.3 114 1575.7 116 1624.8 118.2C1674 120.3 1723 122.7 1772.2 122.5C1821.3 122.3 1870.7 119.7 1895.3 118.3L1920 117L1920 151L1895.3 151C1870.7 151 1821.3 151 1772.2 151C1723 151 1674 151 1624.8 151C1575.7 151 1526.3 151 1477 151C1427.7 151 1378.3 151 1329.2 151C1280 151 1231 151 1181.8 151C1132.7 151 1083.3 151 1034 151C984.7 151 935.3 151 886 151C836.7 151 787.3 151 738.2 151C689 151 640 151 590.8 151C541.7 151 492.3 151 443 151C393.7 151 344.3 151 295.2 151C246 151 197 151 147.8 151C98.7 151 49.3 151 24.7 151L0 151Z" fill="#246d4c"></path>
</svg>