<svg id="visual" viewBox="0 0 1920 250" preserveAspectRatio="none" width="1920" height="250" xmlns="http://www.w3.org/2000/svg" xmlns:xlink="http://www.w3.org/1999/xlink" version="1.1"><path d="M0 109L24.7 119.3C49.3 129.7 98.7 150.3 147.8 156.8C197 163.3 246 155.7 295.2 149.2C344.3 142.7 393.7 137.3 443 139.5C492.3 141.7 541.7 151.3 590.8 161C640 170.7 689 180.3 738.2 184C787.3 187.7 836.7 185.3 886 171.8C935.3 158.3 984.7 133.7 1034 134.8C1083.3 136 1132.7 163 1181.8 165.3C1231 167.7 1280 145.3 1329.2 141.2C1378.3 137 1427.7 151 1477 153.2C1526.3 155.3 1575.7 145.7 1624.8 147.7C1674 149.7 1723 163.3 1772.2 162.5C1821.3 161.7 1870.7 146.3 1895.3 138.7L1920 131L1920 0L1895.3 0C1870.7 0 1821.3 0 1772.2 0C1723 0 1674 0 1624.8 0C1575.7 0 1526.3 0 1477 0C1427.7 0 1378.3 0 1329.2 0C1280 0 1231 0 1181.8 0C1132.7 0 1083.3 0 1034 0C984.7 0 935.3 0 886 0C836.7 0 787.3 0 738.2 0C689 0 640 0 590.8 0C541.7 0 492.3 0 443 0C393.7 0 344.3 0 295.2 0C246 0 197 0 147.8 0C98.7 0 49.3 0 24.7 0L0 0Z" fill="#226409"></path><path d="M0 128L24.7 125.3C49.3 122.7 98.7 117.3 147.8 117.5C197 117.7 246 123.3 295.2 120.8C344.3 118.3 393.7 107.7 443 110.8C492.3 114 541.7 131 590.8 138.8C640 146.7 689 145.3 738.2 135.2C787.3 125 836.7 106 886 102C935.3 98 984.7 109 1034 117.2C1083.3 125.3 1132.7 130.7 1181.8 133C1231 135.3 1280 134.7 1329.2 135.3C1378.3 136 1427.7 138 1477 134.2C1526.3 130.3 1575.7 120.7 1624.8 115C1674 109.3 1723 107.7 1772.2 113.3C1821.3 119 1870.7 132 1895.3 138.5L1920 145L1920 0L1895.3 0C1870.7 0 1821.3 0 1772.2 0C1723 0 1674 0 1624.8 0C1575.7 0 1526.3 0 1477 0C1427.7 0 1378.3 0 1329.2 0C1280 0 1231 0 1181.8 0C1132.7 0 1083.3 0 1034 0C984.7 0 935.3 0 886 0C836.7 0 787.3 0 738.2 0C689 0 640 0 590.8 0C541.7 0 492.3 0 443 0C393.7 0 344.3 0 295.2 0C246 0 197 0 147.8 0C98.7 0 49.3 0 24.7 0L0 0Z" fill="#1d6726"></path><path d="M0 96L24.7 92.2C49.3 88.3 98.7 80.7 147.8 74.7C197 68.7 246 64.3 295.2 69.2C344.3 74 393.7 88 443 89.7C492.3 91.3 541.7 80.7 590.8 81.8C640 83 689 96 738.2 97.7C787.3 99.3 836.7 89.7 886 83.2C935.3 76.7 984.7 73.3 1034 74C1083.3 74.7 1132.7 79.3 1181.8 85.3C1231 91.3 1280 98.7 1329.2 99.8C1378.3 101 1427.7 96 1477 90.2C1526.3 84.3 1575.7 77.7 1624.8 73.2C1674 68.7 1723 66.3 1772.2 69.7C1821.3 73 1870.7 82 1895.3 86.5L1920 91L1920 0L1895.3 0C1870.7 0 1821.3 0 1772.2 0C1723 0 1674 0 1624.8 0C1575.7 0 1526.3 0 1477 0C1427.7 0 1378.3 0 1329.2 0C1280 0 1231 0 1181.8 0C1132.7 0 1083.3 0 1034 0C984.7 0 935.3 0 886 0C836.7 0 787.3 0 738.2 0C689 0 640 0 590.8 0C541.7 0 492.3 0 443 0C393.7 0 344.3 0 295.2 0C246 0 197 0 147.8 0C98.7 0 49.3 0 24.7 0L0 0Z" fill="#1d6a3b"></path><path d="M0 61L24.7 61.2C49.3 61.3 98.7 61.7 147.8 58.8C197 56 246 50 295.2 51.7C344.3 53.3 393.7 62.7 443 63.8C492.3 65 541.7 58 590.8 58.2C640 58.3 689 65.7 738.2 69.3C787.3 73 836.7 73 886 67.8C935.3 62.7 984.7 52.3 1034 48.2C1083.3 44 1132.7 46 1181.8 47.2C1231 48.3 1280 48.7 1329.2 50.8C1378.3 53 1427.7 57 1477 57.2C1526.3 57.3 1575.7 53.7 1624.8 49.8C1674 46 1723 42 1772.2 42.5C1821.3 43 1870.7 48 1895.3 50.5L1920 53L1920 0L1895.3 0C1870.7 0 1821.3 0 1772.2 0C1723 0 1674 0 1624.8 0C1575.7 0 1526.3 0 1477 0C1427.7 0 1378.3 0 1329.2 0C1280 0 1231 0 1181.8 0C1132.7 0 1083.3 0 1034 0C984.7 0 935.3 0 886 0C836.7 0 787.3 0 738.2 0C689 0 640 0 590.8 0C541.7 0 492.3 0 443 0C393.7 0 344.3 0 295.2 0C246 0 197 0 147.8 0C98.7 0 49.3 0 24.7 0L0 0Z" fill="#246d4c"></path></svg>